# xmcd CD database file
#
# Track frame offsets:
#	150
#	5789
#	21313
#	36350
#	47614
#	64413
#	76547
#	89490
#	100454
#	111478
#	126027
#	136675
#
# Disc length: 2002 seconds
#
# Revision: 4
# Processed by: cddbd v1.5.2PL0 Copyright (c) Steve Scherf et al.
# Submitted via: CDex 1.51
#
DISCID=a007d00c
DTITLE=America - Holiday
DYEAR=1974
DGENRE=Pop
TTITLE0=Miniature
TTITLE1=Tin man
TTITLE2=Another try
TTITLE3=Lonely people
TTITLE4=Glad to see you
TTITLE5=Mad dog
TTITLE6=Hollywood
TTITLE7=Baby it's up to you
TTITLE8=You
TTITLE9=Old man took
TTITLE10=What does it matter
TTITLE11=In the country
EXTD=YEAR: 1974
EXTT0=
EXTT1=
EXTT2=
EXTT3=
EXTT4=
EXTT5=
EXTT6=
EXTT7=
EXTT8=
EXTT9=
EXTT10=
EXTT11=
PLAYORDER=
